<svg xmlns="http://www.w3.org/2000/svg" width="103" height="103" viewBox="0 0 103 103">
  <path id="iconmonstr-delivery-8" d="M16.514,81.542H12.875A12.88,12.88,0,0,1,0,68.667V55.792C0,25,23.076,0,51.5,0S103,25,103,55.792V68.667A12.88,12.88,0,0,1,90.125,81.542H86.486C74.941,101.425,56.856,103,51.5,103s-23.441-1.575-34.986-21.458ZM85.833,56.324a3.92,3.92,0,0,1-5.446-3.42,38.932,38.932,0,0,0-.227-3.927C72.6,47.886,64.632,40.711,64.285,33c-5.644,8.6-19.42,17.9-30.231,17.9,4.661-3,7.892-11.9,8.167-15.055C39.728,40.526,29.784,49.3,22.69,50.8l-.077,2.1a3.919,3.919,0,0,1-5.446,3.42V72.508a12.223,12.223,0,0,0,4.468,2.549,3.88,3.88,0,0,1,2.236,1.82c9.467,17.364,23.287,17.54,27.63,17.54,3.987,0,15.961-.15,25.222-13.6-4.6,1.858-9.721,2.592-16.132,2.8-1.588,2.575-5.064,4.36-9.09,4.36-5.528,0-10.012-3.365-10.012-7.51s4.485-7.51,10.012-7.51c4,0,7.459,1.764,9.064,4.313,8.154-.112,18.609-1.433,25.269-11.351v-9.6ZM38.625,53.646c2.944,0,5.335,2.884,5.335,6.438s-2.39,6.437-5.335,6.437-5.335-2.884-5.335-6.437S35.681,53.646,38.625,53.646Zm25.75,0c2.944,0,5.335,2.884,5.335,6.438s-2.39,6.437-5.335,6.437-5.335-2.884-5.335-6.437S61.431,53.646,64.375,53.646Zm23.51-6.437h5.824C90.035,25.244,72.521,8.583,51.5,8.583S12.965,25.244,9.291,47.208h5.824c2.232-17.265,14.639-33.14,36.385-33.14S85.653,29.943,87.885,47.208Z" fill="#ffb000" fill-rule="evenodd"/>
</svg>
