<svg xmlns="http://www.w3.org/2000/svg" width="112.103" height="112.103" viewBox="0 0 112.103 112.103">
  <path id="iconmonstr-delivery-8" d="M17.974,88.748H14.013A14.018,14.018,0,0,1,0,74.735V60.722C0,27.208,25.116,0,56.051,0S112.1,27.208,112.1,60.722V74.735A14.018,14.018,0,0,1,98.09,88.748H94.129C81.564,110.388,61.881,112.1,56.051,112.1s-25.513-1.714-38.077-23.355ZM93.419,61.3a4.267,4.267,0,0,1-5.927-3.723,42.372,42.372,0,0,0-.248-4.274c-8.226-1.186-16.9-9-17.278-17.39-6.142,9.365-21.136,19.478-32.9,19.478,5.073-3.265,8.59-12.953,8.889-16.386-2.714,5.1-13.536,14.648-21.257,16.288l-.084,2.284A4.266,4.266,0,0,1,18.684,61.3V78.916a13.3,13.3,0,0,0,4.862,2.775,4.223,4.223,0,0,1,2.434,1.98c10.3,18.9,25.345,19.09,30.072,19.09,4.339,0,17.371-.163,27.451-14.8-5,2.023-10.58,2.821-17.558,3.05-1.728,2.8-5.512,4.746-9.893,4.746-6.016,0-10.9-3.662-10.9-8.174s4.881-8.174,10.9-8.174c4.358,0,8.118,1.92,9.865,4.694,8.875-.121,20.253-1.56,27.5-12.355V61.3Zm-51.38-2.915c3.2,0,5.806,3.139,5.806,7.006s-2.6,7.006-5.806,7.006-5.806-3.139-5.806-7.006S38.834,58.387,42.038,58.387Zm28.026,0c3.2,0,5.806,3.139,5.806,7.006s-2.6,7.006-5.806,7.006-5.806-3.139-5.806-7.006S66.86,58.387,70.064,58.387ZM95.651,51.38h6.338c-4-23.906-23.06-42.038-45.939-42.038S14.111,27.474,10.113,51.38h6.338c2.429-18.791,15.933-36.069,39.6-36.069S93.223,32.589,95.651,51.38Z" fill="#ffb000" fill-rule="evenodd"/>
</svg>
