<svg xmlns="http://www.w3.org/2000/svg" width="120.219" height="103" viewBox="0 0 120.219 103">
  <g id="_01_align_center" data-name="01 align center" transform="translate(0 -1.424)">
    <path id="Path_78" data-name="Path 78" d="M75.192,29.337,76.874,19.12A15.238,15.238,0,0,0,55.809,2.666a15.713,15.713,0,0,0-7.844,7.774l-9.336,18.9H15.017A15.017,15.017,0,0,0,0,44.354V89.406a15.017,15.017,0,0,0,15.017,15.017h95.2l9.921-55.249.08-19.838ZM10.012,89.406V44.354a5.006,5.006,0,0,1,5.006-5.006H35.04V94.412H15.017A5.006,5.006,0,0,1,10.012,89.406ZM110.127,47.858l-8.36,46.554H45.052V38.893L57.161,14.365a5.356,5.356,0,0,1,8.62-1.046,5.126,5.126,0,0,1,1.166,4.2l-3.6,21.825h46.779Z" transform="translate(0 0)" fill="#ffb000"/>
  </g>
</svg>
