<svg xmlns="http://www.w3.org/2000/svg" width="103" height="103" viewBox="0 0 103 103">
  <path id="tirelire" d="M38.625,17.167H30.042a17.167,17.167,0,0,1,34.333,0H55.792a8.583,8.583,0,1,0-17.167,0ZM72.958,47.208A4.292,4.292,0,1,0,77.25,51.5,4.293,4.293,0,0,0,72.958,47.208Zm30.042,0v25.75H96.189A34.444,34.444,0,0,1,81.542,89.73V103H55.792V94.417H47.208V103H21.458V89.782a34.509,34.509,0,0,1-17.167-29.7A34.148,34.148,0,0,1,7.334,45.955a12.875,12.875,0,0,1,5.541-24.5v8.583a4.29,4.29,0,0,0-.944,8.476A34.277,34.277,0,0,1,38.625,25.75h25.75c.481,0,.961.013,1.442.03C70.594,12.9,85.833,12.875,85.833,12.875V33.359a34.392,34.392,0,0,1,10.36,13.849Zm-8.583,8.583H89.953l-.914-3.069a25.9,25.9,0,0,0-24.668-18.39H38.621a25.73,25.73,0,0,0-11.03,48.985l2.446,1.163v9.931h8.583V85.829h25.75v8.583h8.583V84.434L75.4,83.271A25.791,25.791,0,0,0,89.039,67.444l.914-3.069h4.463V55.792Z" fill="#ffb000"/>
</svg>
