<svg xmlns="http://www.w3.org/2000/svg" width="135.803" height="135.803" viewBox="0 0 135.803 135.803">
  <path id="tirelire" d="M50.926,22.634H39.609a22.634,22.634,0,0,1,45.268,0H73.56a11.317,11.317,0,0,0-22.634,0ZM96.194,62.243a5.658,5.658,0,1,0,5.658,5.658A5.661,5.661,0,0,0,96.194,62.243Zm39.609,0V96.194h-8.98a45.414,45.414,0,0,1-19.312,22.113v17.5H73.56V124.486H62.243V135.8H28.292V118.375A45.5,45.5,0,0,1,5.658,79.218,45.024,45.024,0,0,1,9.67,60.591a16.975,16.975,0,0,1,7.305-32.3V39.609a5.657,5.657,0,0,0-1.245,11.175,45.194,45.194,0,0,1,35.2-16.834H84.877c.634,0,1.267.017,1.9.04,6.3-16.981,26.391-17.015,26.391-17.015V43.983a45.345,45.345,0,0,1,13.66,18.26ZM124.486,73.56H118.6L117.4,69.514A34.148,34.148,0,0,0,84.871,45.268H50.921a33.924,33.924,0,0,0-14.542,64.586l3.225,1.533v13.094H50.921V113.164H84.871v11.317H96.188V111.325l3.22-1.533A34,34,0,0,0,117.4,88.923l1.205-4.046h5.885V73.56Z" fill="#ffb000"/>
</svg>
