<svg xmlns="http://www.w3.org/2000/svg" width="141.453" height="130.572" viewBox="0 0 141.453 130.572">
  <path id="iconmonstr-generation-10" d="M95.209,68.006c0,4.5-3.047,8.161-6.8,8.161s-6.8-3.656-6.8-8.161,3.047-8.161,6.8-8.161S95.209,63.5,95.209,68.006ZM53.045,59.846c-3.754,0-6.8,3.656-6.8,8.161s3.047,8.161,6.8,8.161,6.8-3.656,6.8-8.161S56.8,59.846,53.045,59.846ZM70.727,105.3c12.16,0,16.322-12.807,16.322-12.807H54.405S59.013,105.3,70.727,105.3Zm70.727-36.724c0,15.587-4.3,31.435-10.517,44.846a107.386,107.386,0,0,1-9.885,17.154L100.4,120.143c-8.465,6.458-18.335,10.429-29.673,10.429-10.843,0-20.81-4.075-29.422-10.56l-20.9,10.56a107.386,107.386,0,0,1-9.885-17.154C4.3,100.008,0,84.159,0,68.572,0,27.279,28.731,0,70.727,0S141.453,27.279,141.453,68.572ZM110.611,91.885a5.488,5.488,0,0,1,2.916-2.339c11.458-3.879,13.982-19.2,9.8-25.821C87.554,61.6,64.084,45.428,54.405,29.33,42.126,56.875,26.778,65.39,17.067,66.3c-2.622,9.325,1.752,20.163,10.859,23.247a5.468,5.468,0,0,1,2.916,2.339c9.292,15.4,21.844,27.806,39.884,27.806S101.324,107.265,110.611,91.885Z" fill="#ffcf9d"/>
</svg>
