<svg xmlns="http://www.w3.org/2000/svg" width="130.572" height="130.572" viewBox="0 0 130.572 130.572">
  <path id="iconmonstr-generation-9" d="M89.769,68.006c0,4.5-3.047,8.161-6.8,8.161s-6.8-3.656-6.8-8.161,3.047-8.161,6.8-8.161S89.769,63.5,89.769,68.006ZM47.6,59.846c-3.754,0-6.8,3.656-6.8,8.161s3.047,8.161,6.8,8.161,6.8-3.656,6.8-8.161S51.358,59.846,47.6,59.846ZM65.286,88.991c-12.921-7.911-9.189,11.4-27.2,3.476,2.72,10.946,19.074,12.8,27.2,6.208,8.128,6.594,24.482,4.739,27.2-6.208C74.475,100.394,78.207,81.085,65.286,88.991ZM130.572,72.43c0,9.6-5.359,21.713-17.078,26.691-11.153,17.812-27.067,31.452-48.208,31.452-20.4,0-37.311-14.047-48.214-31.452C5.359,94.137,0,82.027,0,72.43,0,61.576,4.412,51.9,14.6,50.891l.163-.152.016-.109c-1.36-10.582-1.839-26.767,3.912-32.9,3.09-3.292,6.621-4.565,11.137-3.074C36.865,5.054,48.616,0,64.492,0c25.277,0,35.646,13.15,44.487,24.265,4.858,6.11,10.712,12.23,21.593,11.893a51.581,51.581,0,0,1-15.408,9.766c.277,1.638.506,3.286.664,4.935,10.065.9,14.744,10.364,14.744,21.572ZM116.536,62.278a4.11,4.11,0,0,0-3.651-.288,5.447,5.447,0,0,1-7.649-4.973,57.168,57.168,0,0,0-.544-7.78c-22.3,5.049-47.566-1.257-56.407-18.862-12.921,2.04-20.946,12.818-23.008,27.317h-.022a5.383,5.383,0,0,1-7.562,4.3,4.139,4.139,0,0,0-3.656.288C8.6,65.819,9.178,85.041,22.491,89.545A5.436,5.436,0,0,1,25.4,91.885c9.292,15.391,21.844,27.806,39.884,27.806s30.6-12.426,39.884-27.806a5.488,5.488,0,0,1,2.916-2.339c13.318-4.51,13.89-23.742,8.449-27.268Z" fill="#ffcf9d"/>
</svg>
