<svg id="trustpilot-logo-black" xmlns="http://www.w3.org/2000/svg" width="145.646" height="35.762" viewBox="0 0 145.646 35.762">
  <path id="Path_63" data-name="Path 63" d="M312.357,98.6v2.751h-5.8v15.464h-3.188V101.351H297.6V98.6Zm2.1,5.026v2.545h.051a2.847,2.847,0,0,1,.5-1.041,4.635,4.635,0,0,1,.887-.926,4.728,4.728,0,0,1,1.157-.681,3.539,3.539,0,0,1,1.3-.257c.334,0,.578.013.707.026s.257.039.4.051v2.8c-.206-.039-.411-.064-.63-.09a5.339,5.339,0,0,0-.63-.039,3.407,3.407,0,0,0-1.388.3,3.2,3.2,0,0,0-1.131.861,4.374,4.374,0,0,0-.771,1.414,5.993,5.993,0,0,0-.283,1.941V116.8h-2.905V103.626Zm18.357,13.189h-2.854v-1.838H329.9a3.963,3.963,0,0,1-1.594,1.594,4.361,4.361,0,0,1-2.16.6,4.837,4.837,0,0,1-3.766-1.285,5.671,5.671,0,0,1-1.157-3.9v-8.369h2.905v8.086a3.552,3.552,0,0,0,.668,2.455,2.421,2.421,0,0,0,1.864.72,3.574,3.574,0,0,0,1.53-.283,2.58,2.58,0,0,0,.99-.758,2.911,2.911,0,0,0,.553-1.131,5.571,5.571,0,0,0,.167-1.427v-7.649h2.905Zm4.949-4.229a2.238,2.238,0,0,0,.964,1.787,3.89,3.89,0,0,0,2.018.514,8.631,8.631,0,0,0,.926-.064,3.887,3.887,0,0,0,.977-.244,1.878,1.878,0,0,0,.758-.527,1.278,1.278,0,0,0,.27-.9,1.242,1.242,0,0,0-.411-.913,2.9,2.9,0,0,0-.977-.578,9.807,9.807,0,0,0-1.363-.373c-.514-.1-1.028-.219-1.555-.334a14.764,14.764,0,0,1-1.568-.437,4.9,4.9,0,0,1-1.35-.694,3.053,3.053,0,0,1-.951-1.106,3.457,3.457,0,0,1-.36-1.671,3.012,3.012,0,0,1,.527-1.8,4,4,0,0,1,1.324-1.17,6.137,6.137,0,0,1,1.787-.63,10.879,10.879,0,0,1,1.877-.18,8.751,8.751,0,0,1,1.954.219,5.037,5.037,0,0,1,1.684.707,4.164,4.164,0,0,1,1.247,1.26,4.385,4.385,0,0,1,.63,1.877h-3.034a1.809,1.809,0,0,0-.951-1.4,3.9,3.9,0,0,0-1.723-.36,5.408,5.408,0,0,0-.733.051,4.011,4.011,0,0,0-.8.193,1.728,1.728,0,0,0-.63.411.994.994,0,0,0-.257.707,1.1,1.1,0,0,0,.373.861,3.118,3.118,0,0,0,.964.553,9.806,9.806,0,0,0,1.363.373c.514.1,1.041.219,1.581.334s1.041.27,1.555.437a4.7,4.7,0,0,1,1.363.694,3.423,3.423,0,0,1,.964,1.093,3.332,3.332,0,0,1,.373,1.633,3.552,3.552,0,0,1-.54,1.993,4.273,4.273,0,0,1-1.388,1.324,6.527,6.527,0,0,1-1.9.746,9.547,9.547,0,0,1-2.07.231,8.779,8.779,0,0,1-2.314-.283,5.633,5.633,0,0,1-1.838-.848,4.207,4.207,0,0,1-1.221-1.427,4.684,4.684,0,0,1-.476-2.031h2.931Zm11.788-8.96V99.667h2.905v3.959h2.622V105.8h-2.622v7.044a7.19,7.19,0,0,0,.039.8,1.466,1.466,0,0,0,.18.566.791.791,0,0,0,.424.347,2.072,2.072,0,0,0,.771.116c.206,0,.411,0,.617-.013a3.4,3.4,0,0,0,.617-.09v2.25c-.321.039-.643.064-.938.1a7.517,7.517,0,0,1-.938.051,6.5,6.5,0,0,1-1.851-.219,2.4,2.4,0,0,1-1.093-.643,2.231,2.231,0,0,1-.54-1.054,7.924,7.924,0,0,1-.167-1.453v-7.777h-2.2v-2.2Zm7.584,0h2.751v1.787h.051a3.589,3.589,0,0,1,1.71-1.645,5.634,5.634,0,0,1,2.378-.5,6.156,6.156,0,0,1,2.712.553,5.3,5.3,0,0,1,1.928,1.5,6.582,6.582,0,0,1,1.144,2.237,9.373,9.373,0,0,1,.386,2.725,9.474,9.474,0,0,1-.347,2.571,6.881,6.881,0,0,1-1.041,2.211,5.112,5.112,0,0,1-1.774,1.53,5.262,5.262,0,0,1-2.532.578,7.031,7.031,0,0,1-1.273-.116,5.6,5.6,0,0,1-1.221-.373,4.409,4.409,0,0,1-1.08-.656,4.072,4.072,0,0,1-.836-.926h-.051v6.582h-2.905Zm10.155,6.607a6.566,6.566,0,0,0-.231-1.735,4.68,4.68,0,0,0-.694-1.491,3.537,3.537,0,0,0-1.144-1.041,3.531,3.531,0,0,0-4.345.874,5.647,5.647,0,0,0-.926,3.394,6.514,6.514,0,0,0,.244,1.851,4.134,4.134,0,0,0,.733,1.465,3.387,3.387,0,0,0,1.157.964,3.625,3.625,0,0,0,3.252-.051,3.556,3.556,0,0,0,1.131-1.054,4.38,4.38,0,0,0,.643-1.478A8.264,8.264,0,0,0,367.286,110.234ZM372.415,98.6h2.905v2.751h-2.905Zm0,5.026h2.905v13.189h-2.905Zm5.5-5.026h2.905v18.215h-2.905Zm11.814,18.575a7.185,7.185,0,0,1-2.815-.527,5.9,5.9,0,0,1-3.394-3.638,8.485,8.485,0,0,1-.45-2.8,8.385,8.385,0,0,1,.45-2.777,6.269,6.269,0,0,1,1.3-2.2,5.92,5.92,0,0,1,2.1-1.44,7.782,7.782,0,0,1,5.63,0,5.9,5.9,0,0,1,3.394,3.638,8.385,8.385,0,0,1,.45,2.777,8.485,8.485,0,0,1-.45,2.8,6.269,6.269,0,0,1-1.3,2.2,5.92,5.92,0,0,1-2.1,1.44A7.185,7.185,0,0,1,389.731,117.175Zm0-2.3a3.369,3.369,0,0,0,1.684-.411,3.583,3.583,0,0,0,1.17-1.067,4.79,4.79,0,0,0,.681-1.491,6.648,6.648,0,0,0,0-3.381,4.4,4.4,0,0,0-.681-1.491,3.546,3.546,0,0,0-1.17-1.054,3.653,3.653,0,0,0-3.368,0,3.692,3.692,0,0,0-1.17,1.054,4.658,4.658,0,0,0-.681,1.491,6.647,6.647,0,0,0,0,3.381,4.513,4.513,0,0,0,.681,1.491,3.583,3.583,0,0,0,1.17,1.067A3.24,3.24,0,0,0,389.731,114.874Zm9.705-11.248V99.667h2.905v3.959h2.622V105.8h-2.622v7.044a7.189,7.189,0,0,0,.039.8,1.465,1.465,0,0,0,.18.566.791.791,0,0,0,.424.347,2.072,2.072,0,0,0,.771.116c.206,0,.411,0,.617-.013a3.4,3.4,0,0,0,.617-.09v2.25c-.321.039-.643.064-.938.1a7.515,7.515,0,0,1-.938.051,6.5,6.5,0,0,1-1.851-.219,2.4,2.4,0,0,1-1.093-.643,2.231,2.231,0,0,1-.54-1.054,7.929,7.929,0,0,1-.167-1.453v-7.777h-2.2v-2.2Z" transform="translate(-259.344 -85.925)" fill-rule="evenodd"/>
  <path id="Path_64" data-name="Path 64" d="M24.1,20.5l4.114,12.662L17.444,25.337,6.659,33.166,10.785,20.5,0,12.662l13.318.013L17.444,0l4.114,12.675H34.875Z" fill="#00b67a"/>
  <path id="Path_65" data-name="Path 65" d="M135.7,164.333l6.659-4.833.926,2.867Z" transform="translate(-118.256 -138.997)" fill="#005128"/>
</svg>
