<svg xmlns="http://www.w3.org/2000/svg" width="24.261" height="24.261" viewBox="0 0 24.261 24.261">
  <path id="Icon_awesome-facebook-square" data-name="Icon awesome-facebook-square" d="M21.662,2.25H2.6A2.6,2.6,0,0,0,0,4.849V23.912a2.6,2.6,0,0,0,2.6,2.6h7.433V18.263H6.62V14.38h3.412V11.422c0-3.366,2-5.225,5.073-5.225a20.669,20.669,0,0,1,3.007.262v3.3H16.418a1.941,1.941,0,0,0-2.189,2.1V14.38h3.725l-.6,3.882H14.229v8.248h7.433a2.6,2.6,0,0,0,2.6-2.6V4.849a2.6,2.6,0,0,0-2.6-2.6Z" transform="translate(0 -2.25)" fill="#ffb000"/>
</svg>
