<svg xmlns="http://www.w3.org/2000/svg" width="24.261" height="24.261" viewBox="0 0 24.261 24.261">
  <path id="Icon_simple-instagram" data-name="Icon simple-instagram" d="M12.13,0c-3.3,0-3.707.015-5,.073A8.945,8.945,0,0,0,4.185.637a5.94,5.94,0,0,0-2.149,1.4,5.919,5.919,0,0,0-1.4,2.149A8.919,8.919,0,0,0,.073,7.13C.012,8.424,0,8.835,0,12.13s.015,3.707.073,5a8.95,8.95,0,0,0,.564,2.945,5.949,5.949,0,0,0,1.4,2.149,5.932,5.932,0,0,0,2.149,1.4,8.956,8.956,0,0,0,2.945.564c1.294.061,1.705.073,5,.073s3.707-.015,5-.073a8.977,8.977,0,0,0,2.945-.564,6.2,6.2,0,0,0,3.548-3.548,8.95,8.95,0,0,0,.564-2.945c.061-1.294.073-1.705.073-5s-.015-3.707-.073-5a8.971,8.971,0,0,0-.564-2.945,5.954,5.954,0,0,0-1.4-2.149,5.91,5.91,0,0,0-2.149-1.4A8.924,8.924,0,0,0,17.131.073C15.837.012,15.426,0,12.13,0Zm0,2.183c3.238,0,3.624.016,4.9.072a6.683,6.683,0,0,1,2.251.42,3.992,3.992,0,0,1,2.3,2.3A6.7,6.7,0,0,1,22,7.228c.058,1.28.071,1.664.071,4.9s-.015,3.624-.075,4.9a6.827,6.827,0,0,1-.426,2.251,3.852,3.852,0,0,1-.909,1.4,3.784,3.784,0,0,1-1.4.906A6.747,6.747,0,0,1,17.012,22c-1.288.058-1.667.071-4.912.071S8.475,22.06,7.188,22a6.878,6.878,0,0,1-2.26-.426,3.757,3.757,0,0,1-1.394-.909,3.683,3.683,0,0,1-.91-1.4A6.884,6.884,0,0,1,2.2,17.012c-.045-1.274-.062-1.667-.062-4.9S2.154,8.49,2.2,7.2a6.876,6.876,0,0,1,.425-2.258,3.6,3.6,0,0,1,.91-1.4,3.588,3.588,0,0,1,1.394-.908,6.714,6.714,0,0,1,2.245-.426c1.289-.045,1.668-.061,4.912-.061l.045.03Zm0,3.718A6.229,6.229,0,1,0,18.36,12.13,6.229,6.229,0,0,0,12.13,5.9Zm0,10.273a4.043,4.043,0,1,1,4.043-4.043A4.042,4.042,0,0,1,12.13,16.174ZM20.062,5.656A1.456,1.456,0,1,1,18.606,4.2,1.457,1.457,0,0,1,20.062,5.656Z" fill="#ffb000"/>
</svg>
