<svg xmlns="http://www.w3.org/2000/svg" width="24.261" height="24.261" viewBox="0 0 24.261 24.261">
  <path id="Icon_awesome-linkedin" data-name="Icon awesome-linkedin" d="M22.528,2.25H1.728A1.74,1.74,0,0,0,0,4V24.762a1.74,1.74,0,0,0,1.728,1.749h20.8a1.745,1.745,0,0,0,1.733-1.749V4A1.745,1.745,0,0,0,22.528,2.25Zm-15.2,20.8h-3.6V11.467h3.6V23.045ZM5.535,9.886A2.085,2.085,0,1,1,7.619,7.8,2.086,2.086,0,0,1,5.535,9.886ZM20.811,23.045h-3.6V17.413c0-1.343-.027-3.071-1.868-3.071-1.874,0-2.161,1.462-2.161,2.973v5.729h-3.6V11.467h3.45v1.581h.049A3.787,3.787,0,0,1,16.5,11.18c3.639,0,4.316,2.4,4.316,5.518Z" transform="translate(0 -2.25)" fill="#ffb000"/>
</svg>
