<svg xmlns="http://www.w3.org/2000/svg" width="24.261" height="24.261" viewBox="0 0 24.261 24.261">
  <path id="Icon_awesome-twitter-square" data-name="Icon awesome-twitter-square" d="M21.662,2.25H2.6A2.6,2.6,0,0,0,0,4.849V23.912a2.6,2.6,0,0,0,2.6,2.6H21.662a2.6,2.6,0,0,0,2.6-2.6V4.849A2.6,2.6,0,0,0,21.662,2.25Zm-2.648,8.6c.011.152.011.309.011.46A10.036,10.036,0,0,1,8.919,21.415a10.059,10.059,0,0,1-5.453-1.592,7.482,7.482,0,0,0,.856.043A7.121,7.121,0,0,0,8.73,18.35a3.556,3.556,0,0,1-3.32-2.464,3.828,3.828,0,0,0,1.6-.065A3.552,3.552,0,0,1,4.17,12.333V12.29a3.549,3.549,0,0,0,1.6.449A3.544,3.544,0,0,1,4.192,9.783,3.507,3.507,0,0,1,4.673,7.99,10.085,10.085,0,0,0,12,11.705a3.559,3.559,0,0,1,6.06-3.244,6.96,6.96,0,0,0,2.253-.856,3.542,3.542,0,0,1-1.56,1.955A7.068,7.068,0,0,0,20.8,9.008,7.476,7.476,0,0,1,19.013,10.85Z" transform="translate(0 -2.25)" fill="#ffb000"/>
</svg>
