<svg xmlns="http://www.w3.org/2000/svg" width="238.102" height="65.092" viewBox="0 0 238.102 65.092">
  <g id="logo" transform="translate(-124.798 -111.486)">
    <g id="Group_4" data-name="Group 4">
      <g id="Group_3" data-name="Group 3">
        <path id="Path_20" data-name="Path 20" d="M186.5,128.2a2.824,2.824,0,0,1-2.3-.8,2.52,2.52,0,0,1-.8-2.1,2.865,2.865,0,0,1,.8-2.1,4.129,4.129,0,0,1,4.6,0,3.156,3.156,0,0,1,0,4.2A3.2,3.2,0,0,1,186.5,128.2Zm0,30.2a2.139,2.139,0,0,1-1.8-.7,3.221,3.221,0,0,1-.7-2V136.2a2.578,2.578,0,0,1,.7-2,2.139,2.139,0,0,1,1.8-.7,2.489,2.489,0,0,1,1.9.7,2.578,2.578,0,0,1,.7,2v19.5a2.986,2.986,0,0,1-.6,2A2.883,2.883,0,0,1,186.5,158.4Z" fill="#fcfcf5"/>
        <path id="Path_21" data-name="Path 21" d="M201.4,158.6a10.014,10.014,0,0,1-4.6-1,8.556,8.556,0,0,1-3.2-2.7,6.389,6.389,0,0,1-1.1-3.9,6.532,6.532,0,0,1,1.4-4.3,7.934,7.934,0,0,1,4.5-2.2,39.5,39.5,0,0,1,8.6-.7h2.3v3.1H207a29.061,29.061,0,0,0-5.7.4,5.237,5.237,0,0,0-3,1.2,2.869,2.869,0,0,0-.9,2.3,3.871,3.871,0,0,0,1.3,3.1,5.219,5.219,0,0,0,3.6,1.2,5.71,5.71,0,0,0,3.2-.9,6.358,6.358,0,0,0,2.2-2.4,7.536,7.536,0,0,0,.8-3.5v-5.8c0-1.9-.4-3.3-1.2-4.1s-2.1-1.2-4-1.2a12.423,12.423,0,0,0-3.3.4,22.761,22.761,0,0,0-3.6,1.3,1.69,1.69,0,0,1-1.5.2,1.272,1.272,0,0,1-.9-.7,2.46,2.46,0,0,1-.4-1.1,2.663,2.663,0,0,1,.3-1.2,2.012,2.012,0,0,1,1.1-.9,19.089,19.089,0,0,1,4.4-1.5,19.863,19.863,0,0,1,4-.5,12.5,12.5,0,0,1,5.5,1.1,6.634,6.634,0,0,1,3.2,3.2,12.661,12.661,0,0,1,1.1,5.6v12.8a2.883,2.883,0,0,1-.6,1.9,2.139,2.139,0,0,1-1.8.7,2.41,2.41,0,0,1-1.8-.7,2.707,2.707,0,0,1-.6-1.9v-3.2h.4a8.593,8.593,0,0,1-1.5,3.2,6,6,0,0,1-2.7,2A6.317,6.317,0,0,1,201.4,158.6Z" fill="#fcfcf5"/>
        <path id="Path_22" data-name="Path 22" d="M220.5,167.4a2.445,2.445,0,0,1-1.8-.6,2.738,2.738,0,0,1-.7-1.9v-29a2.352,2.352,0,0,1,.7-1.9,2.445,2.445,0,0,1,1.8-.6,2.883,2.883,0,0,1,1.9.6,2.707,2.707,0,0,1,.6,1.9v4.4l-.5-1a7.9,7.9,0,0,1,3.1-4.3,9.365,9.365,0,0,1,5.5-1.6,9.784,9.784,0,0,1,5.7,1.6,10.606,10.606,0,0,1,3.8,4.3,15.575,15.575,0,0,1,1.3,6.8,15.412,15.412,0,0,1-1.3,6.7,10.08,10.08,0,0,1-3.7,4.4,10.534,10.534,0,0,1-5.7,1.5,9.365,9.365,0,0,1-5.5-1.6,7.546,7.546,0,0,1-3.1-4.2h.6v12.2a2.352,2.352,0,0,1-.7,1.9A5.917,5.917,0,0,1,220.5,167.4Zm9.3-12.8a6.092,6.092,0,0,0,3.6-1,6.957,6.957,0,0,0,2.4-2.9,11.5,11.5,0,0,0,.8-4.8c0-2.9-.6-5-1.9-6.5a6.859,6.859,0,0,0-8.6-1.2,5.826,5.826,0,0,0-2.4,2.9,11.423,11.423,0,0,0-.9,4.8c0,2.8.6,5,1.9,6.5A6.525,6.525,0,0,0,229.8,154.6Z" fill="#fcfcf5"/>
        <path id="Path_23" data-name="Path 23" d="M252.8,158.6a10.014,10.014,0,0,1-4.6-1,8.556,8.556,0,0,1-3.2-2.7,6.389,6.389,0,0,1-1.1-3.9,6.532,6.532,0,0,1,1.4-4.3,7.934,7.934,0,0,1,4.5-2.2,39.5,39.5,0,0,1,8.6-.7h2.3v3.1h-2.3a29.061,29.061,0,0,0-5.7.4,5.237,5.237,0,0,0-3,1.2,2.869,2.869,0,0,0-.9,2.3,3.871,3.871,0,0,0,1.3,3.1,5.219,5.219,0,0,0,3.6,1.2,5.71,5.71,0,0,0,3.2-.9,6.358,6.358,0,0,0,2.2-2.4,7.536,7.536,0,0,0,.8-3.5v-5.8c0-1.9-.4-3.3-1.2-4.1s-2.1-1.2-4-1.2a12.423,12.423,0,0,0-3.3.4,22.761,22.761,0,0,0-3.6,1.3,1.69,1.69,0,0,1-1.5.2,1.272,1.272,0,0,1-.9-.7,2.46,2.46,0,0,1-.4-1.1,2.663,2.663,0,0,1,.3-1.2,2.012,2.012,0,0,1,1.1-.9,19.089,19.089,0,0,1,4.4-1.5,19.946,19.946,0,0,1,4.1-.5,12.5,12.5,0,0,1,5.5,1.1,6.634,6.634,0,0,1,3.2,3.2,12.764,12.764,0,0,1,1,5.6v12.8a2.883,2.883,0,0,1-.6,1.9,2.139,2.139,0,0,1-1.8.7,2.41,2.41,0,0,1-1.8-.7,2.707,2.707,0,0,1-.6-1.9v-3.2h.5a8.593,8.593,0,0,1-1.5,3.2,6,6,0,0,1-2.7,2A7.048,7.048,0,0,1,252.8,158.6Z" fill="#fcfcf5"/>
        <path id="Path_24" data-name="Path 24" d="M270.3,158.1a1.987,1.987,0,0,1-2-1.4,3.3,3.3,0,0,1,0-1.4,3.361,3.361,0,0,1,.8-1.4l13.6-17.6v1.2H270a2.456,2.456,0,0,1-1.5-.5,2.168,2.168,0,0,1-.5-1.4,1.978,1.978,0,0,1,.5-1.4,2.07,2.07,0,0,1,1.5-.5h15.1a2.41,2.41,0,0,1,1.5.4,2.539,2.539,0,0,1,.8,1,2.845,2.845,0,0,1,0,1.3,2.54,2.54,0,0,1-.8,1.4l-13.8,17.9v-1.4h13.4c1.3,0,2,.6,2,1.9a1.978,1.978,0,0,1-.5,1.4,2.07,2.07,0,0,1-1.5.5Z" fill="#fcfcf5"/>
        <path id="Path_25" data-name="Path 25" d="M300.4,158.6A11.935,11.935,0,0,1,294,157a10.5,10.5,0,0,1-4.2-4.4,14.1,14.1,0,0,1-1.5-6.7,13.808,13.808,0,0,1,.9-5.2,13.314,13.314,0,0,1,2.4-4,10.294,10.294,0,0,1,3.8-2.6,13.109,13.109,0,0,1,5-.9,11.815,11.815,0,0,1,6.3,1.6,11.116,11.116,0,0,1,4.2,4.4,15.608,15.608,0,0,1,.6,11.9,12.181,12.181,0,0,1-2.4,4,10.083,10.083,0,0,1-3.8,2.5A11.311,11.311,0,0,1,300.4,158.6Zm0-4a6.092,6.092,0,0,0,3.6-1,6.957,6.957,0,0,0,2.4-2.9,11.423,11.423,0,0,0,.9-4.8c0-2.9-.6-5-1.9-6.5a6.184,6.184,0,0,0-5-2.2,6.633,6.633,0,0,0-3.7,1,6.383,6.383,0,0,0-2.4,2.9,11.423,11.423,0,0,0-.9,4.8c0,2.8.6,5,1.9,6.5A6.385,6.385,0,0,0,300.4,154.6Z" fill="#fcfcf5"/>
        <path id="Path_26" data-name="Path 26" d="M318,158.4a2.139,2.139,0,0,1-1.8-.7,2.738,2.738,0,0,1-.7-1.9v-20a2.352,2.352,0,0,1,.7-1.9,3,3,0,0,1,3.6,0,2.707,2.707,0,0,1,.6,1.9v3.9l-.5-.9a8,8,0,0,1,3.4-4.2,9.907,9.907,0,0,1,5.4-1.4,10.014,10.014,0,0,1,4.8,1.1,6.966,6.966,0,0,1,2.9,3.2,14.224,14.224,0,0,1,1,5.5v12.8a2.489,2.489,0,0,1-.7,1.9,2.139,2.139,0,0,1-1.8.7,2.352,2.352,0,0,1-1.9-.7,2.738,2.738,0,0,1-.7-1.9V143.3a7.234,7.234,0,0,0-1.2-4.6,4.576,4.576,0,0,0-3.8-1.4,6.405,6.405,0,0,0-4.9,1.9,7.221,7.221,0,0,0-1.8,5.1v11.6C320.6,157.6,319.7,158.4,318,158.4Z" fill="#fcfcf5"/>
        <path id="Path_27" data-name="Path 27" d="M353.3,158.6a14.652,14.652,0,0,1-6.9-1.5,11.629,11.629,0,0,1-4.5-4.3,14.113,14.113,0,0,1-1.6-6.7,12.664,12.664,0,0,1,1.6-6.6,11.208,11.208,0,0,1,10.3-6.1,12.458,12.458,0,0,1,4.5.8,9.152,9.152,0,0,1,3.4,2.4,9.365,9.365,0,0,1,2.1,3.8,19.468,19.468,0,0,1,.7,5,1.728,1.728,0,0,1-.5,1.3,2.076,2.076,0,0,1-1.5.4H344.1V144h15.4l-.8.7a10.242,10.242,0,0,0-.7-4.2,5.816,5.816,0,0,0-2.1-2.7,6.508,6.508,0,0,0-3.5-.9,7.236,7.236,0,0,0-4,1.1,7.041,7.041,0,0,0-2.5,3.1,10.639,10.639,0,0,0-.8,4.5v.3q0,4.35,2.1,6.6a7.781,7.781,0,0,0,6,2.2,12.194,12.194,0,0,0,3.2-.4,10.077,10.077,0,0,0,3.2-1.4,2.414,2.414,0,0,1,1.5-.4,1.82,1.82,0,0,1,1.1.4,1.389,1.389,0,0,1,.5,1,1.721,1.721,0,0,1-.2,1.2,2.591,2.591,0,0,1-1,1.1,12.086,12.086,0,0,1-4,1.7A16.041,16.041,0,0,1,353.3,158.6Z" fill="#fcfcf5"/>
      </g>
      <path id="Path_28" data-name="Path 28" d="M141,115.7c-15.2,3.3-17.3,51.1,0,56.3,9.8,2.9,27.6-7.1,32.4-19.3C181.4,132.8,152.3,113.3,141,115.7Z" fill="none" stroke="#ffb000" stroke-miterlimit="10" stroke-width="8"/>
    </g>
  </g>
</svg>
