<svg xmlns="http://www.w3.org/2000/svg" width="238.002" height="65.091" viewBox="0 0 238.002 65.091">
  <g id="logo" transform="translate(-12.698 -5.088)">
    <g id="Group_26" data-name="Group 26">
      <path id="Path_68" data-name="Path 68" d="M74.3,21.9a2.824,2.824,0,0,1-2.3-.8,2.52,2.52,0,0,1-.8-2.1,2.865,2.865,0,0,1,.8-2.1,4.129,4.129,0,0,1,4.6,0,2.865,2.865,0,0,1,.8,2.1,2.865,2.865,0,0,1-.8,2.1A3.2,3.2,0,0,1,74.3,21.9Zm0,30.1a2.139,2.139,0,0,1-1.8-.7,3.221,3.221,0,0,1-.7-2V29.8a2.578,2.578,0,0,1,.7-2,2.139,2.139,0,0,1,1.8-.7,2.489,2.489,0,0,1,1.9.7,2.578,2.578,0,0,1,.7,2V49.3a2.986,2.986,0,0,1-.6,2A2.578,2.578,0,0,1,74.3,52Z" fill="#061a0f"/>
      <path id="Path_69" data-name="Path 69" d="M89.3,52.2a10.014,10.014,0,0,1-4.6-1,8.556,8.556,0,0,1-3.2-2.7,6.389,6.389,0,0,1-1.1-3.9,6.532,6.532,0,0,1,1.4-4.3,7.934,7.934,0,0,1,4.5-2.2,39.5,39.5,0,0,1,8.6-.7h2.3v3.1H94.9a29.06,29.06,0,0,0-5.7.4,5.237,5.237,0,0,0-3,1.2,2.869,2.869,0,0,0-.9,2.3,3.871,3.871,0,0,0,1.3,3.1,5.219,5.219,0,0,0,3.6,1.2,5.71,5.71,0,0,0,3.2-.9,6.358,6.358,0,0,0,2.2-2.4,7.536,7.536,0,0,0,.8-3.5V36.1c0-1.9-.4-3.3-1.2-4.1s-2.1-1.2-4-1.2a12.423,12.423,0,0,0-3.3.4,22.761,22.761,0,0,0-3.6,1.3,1.69,1.69,0,0,1-1.5.2,1.272,1.272,0,0,1-.9-.7,2.46,2.46,0,0,1-.4-1.1,2.663,2.663,0,0,1,.3-1.2,2.012,2.012,0,0,1,1.1-.9,19.089,19.089,0,0,1,4.4-1.5,19.864,19.864,0,0,1,4-.5,12.5,12.5,0,0,1,5.5,1.1,6.634,6.634,0,0,1,3.2,3.2,12.661,12.661,0,0,1,1.1,5.6V49.5a2.883,2.883,0,0,1-.6,1.9,2.139,2.139,0,0,1-1.8.7,2.41,2.41,0,0,1-1.8-.7,2.707,2.707,0,0,1-.6-1.9V46.3h.4a8.593,8.593,0,0,1-1.5,3.2,6,6,0,0,1-2.7,2A5.424,5.424,0,0,1,89.3,52.2Z" fill="#061a0f"/>
      <path id="Path_70" data-name="Path 70" d="M108.3,61.1a2.445,2.445,0,0,1-1.8-.6,2.738,2.738,0,0,1-.7-1.9v-29a2.352,2.352,0,0,1,.7-1.9,2.445,2.445,0,0,1,1.8-.6,2.883,2.883,0,0,1,1.9.6,2.707,2.707,0,0,1,.6,1.9V34l-.5-1a7.9,7.9,0,0,1,3.1-4.3,9.365,9.365,0,0,1,5.5-1.6,9.784,9.784,0,0,1,5.7,1.6,10.606,10.606,0,0,1,3.8,4.3,15.575,15.575,0,0,1,1.3,6.8,15.412,15.412,0,0,1-1.3,6.7,10.08,10.08,0,0,1-3.7,4.4,10.534,10.534,0,0,1-5.7,1.5,9.365,9.365,0,0,1-5.5-1.6,7.546,7.546,0,0,1-3.1-4.2h.6V58.8a2.352,2.352,0,0,1-.7,1.9A5.44,5.44,0,0,1,108.3,61.1Zm9.4-12.8a6.092,6.092,0,0,0,3.6-1,6.957,6.957,0,0,0,2.4-2.9,11.5,11.5,0,0,0,.8-4.8c0-2.9-.6-5-1.9-6.5a6.859,6.859,0,0,0-8.6-1.2,5.826,5.826,0,0,0-2.4,2.9,11.424,11.424,0,0,0-.9,4.8c0,2.8.6,5,1.9,6.5A6.872,6.872,0,0,0,117.7,48.3Z" fill="#061a0f"/>
      <path id="Path_71" data-name="Path 71" d="M140.7,52.2a10.014,10.014,0,0,1-4.6-1,8.556,8.556,0,0,1-3.2-2.7,6.389,6.389,0,0,1-1.1-3.9,6.532,6.532,0,0,1,1.4-4.3,7.934,7.934,0,0,1,4.5-2.2,39.5,39.5,0,0,1,8.6-.7h2.3v3.1h-2.3a29.06,29.06,0,0,0-5.7.4,5.237,5.237,0,0,0-3,1.2,2.869,2.869,0,0,0-.9,2.3,3.871,3.871,0,0,0,1.3,3.1,5.219,5.219,0,0,0,3.6,1.2,5.71,5.71,0,0,0,3.2-.9,6.358,6.358,0,0,0,2.2-2.4,7.536,7.536,0,0,0,.8-3.5V36.1c0-1.9-.4-3.3-1.2-4.1s-2.1-1.2-4-1.2a12.423,12.423,0,0,0-3.3.4,22.761,22.761,0,0,0-3.6,1.3,1.69,1.69,0,0,1-1.5.2,1.272,1.272,0,0,1-.9-.7,2.46,2.46,0,0,1-.4-1.1,2.663,2.663,0,0,1,.3-1.2,2.012,2.012,0,0,1,1.1-.9,19.089,19.089,0,0,1,4.4-1.5,19.947,19.947,0,0,1,4.1-.5,12.5,12.5,0,0,1,5.5,1.1,6.634,6.634,0,0,1,3.2,3.2,12.764,12.764,0,0,1,1,5.6V49.5a2.883,2.883,0,0,1-.6,1.9,2.139,2.139,0,0,1-1.8.7,2.41,2.41,0,0,1-1.8-.7,2.707,2.707,0,0,1-.6-1.9V46.3h.5a8.593,8.593,0,0,1-1.5,3.2,7.917,7.917,0,0,1-6,2.7Z" fill="#061a0f"/>
      <path id="Path_72" data-name="Path 72" d="M158.2,51.7a1.987,1.987,0,0,1-2-1.4,3.3,3.3,0,0,1,0-1.4,3.361,3.361,0,0,1,.8-1.4L170.6,30v1.2H157.9a2.456,2.456,0,0,1-1.5-.5,2.168,2.168,0,0,1-.5-1.4,1.978,1.978,0,0,1,.5-1.4,2.07,2.07,0,0,1,1.5-.5H173a2.41,2.41,0,0,1,1.5.4,2.539,2.539,0,0,1,.8,1,2.845,2.845,0,0,1,0,1.3,2.54,2.54,0,0,1-.8,1.4L160.7,49.4V48h13.4c1.3,0,2,.6,2,1.9a1.978,1.978,0,0,1-.5,1.4,2.07,2.07,0,0,1-1.5.5H158.2Z" fill="#061a0f"/>
      <path id="Path_73" data-name="Path 73" d="M188.2,52.2a11.935,11.935,0,0,1-6.4-1.6,10.5,10.5,0,0,1-4.2-4.4,14.1,14.1,0,0,1-1.5-6.7,13.809,13.809,0,0,1,.9-5.2,13.314,13.314,0,0,1,2.4-4,10.294,10.294,0,0,1,3.8-2.6,13.109,13.109,0,0,1,5-.9,11.816,11.816,0,0,1,6.3,1.6,10.5,10.5,0,0,1,4.2,4.4,14.1,14.1,0,0,1,1.5,6.7,14.178,14.178,0,0,1-.9,5.2,12.181,12.181,0,0,1-2.4,4,10.083,10.083,0,0,1-3.8,2.5A11.014,11.014,0,0,1,188.2,52.2Zm0-3.9a6.092,6.092,0,0,0,3.6-1,6.957,6.957,0,0,0,2.4-2.9,11.423,11.423,0,0,0,.9-4.8c0-2.9-.6-5-1.9-6.5a6.184,6.184,0,0,0-5-2.2,6.633,6.633,0,0,0-3.7,1,6.383,6.383,0,0,0-2.4,2.9,11.423,11.423,0,0,0-.9,4.8c0,2.8.6,5,1.9,6.5A6.385,6.385,0,0,0,188.2,48.3Z" fill="#061a0f"/>
      <path id="Path_74" data-name="Path 74" d="M205.9,52.1a2.139,2.139,0,0,1-1.8-.7,2.738,2.738,0,0,1-.7-1.9v-20a2.352,2.352,0,0,1,.7-1.9,3,3,0,0,1,3.6,0,2.707,2.707,0,0,1,.6,1.9v3.9l-.5-.9a8,8,0,0,1,3.4-4.2,9.907,9.907,0,0,1,5.4-1.4,10.014,10.014,0,0,1,4.8,1.1,6.966,6.966,0,0,1,2.9,3.2,14.224,14.224,0,0,1,1,5.5V49.5a2.489,2.489,0,0,1-.7,1.9,2.139,2.139,0,0,1-1.8.7,2.352,2.352,0,0,1-1.9-.7,2.738,2.738,0,0,1-.7-1.9V37a7.234,7.234,0,0,0-1.2-4.6,4.576,4.576,0,0,0-3.8-1.4,6.405,6.405,0,0,0-4.9,1.9,7.221,7.221,0,0,0-1.8,5.1V49.6A2.341,2.341,0,0,1,205.9,52.1Z" fill="#061a0f"/>
      <path id="Path_75" data-name="Path 75" d="M241.1,52.2a14.652,14.652,0,0,1-6.9-1.5,11.629,11.629,0,0,1-4.5-4.3,14.113,14.113,0,0,1-1.6-6.7,12.664,12.664,0,0,1,1.6-6.6A11.208,11.208,0,0,1,240,27a12.458,12.458,0,0,1,4.5.8,9.152,9.152,0,0,1,3.4,2.4A9.365,9.365,0,0,1,250,34a19.468,19.468,0,0,1,.7,5,1.727,1.727,0,0,1-.5,1.3,2.076,2.076,0,0,1-1.5.4H231.9V37.6h15.4l-.8.7a10.242,10.242,0,0,0-.7-4.2,5.815,5.815,0,0,0-2.1-2.7,6.508,6.508,0,0,0-3.5-.9,7.236,7.236,0,0,0-4,1.1,7.041,7.041,0,0,0-2.5,3.1,10.639,10.639,0,0,0-.8,4.5v.3q0,4.35,2.1,6.6a7.781,7.781,0,0,0,6,2.2,12.193,12.193,0,0,0,3.2-.4,10.077,10.077,0,0,0,3.2-1.4,2.415,2.415,0,0,1,1.5-.4,1.82,1.82,0,0,1,1.1.4,1.389,1.389,0,0,1,.5,1,1.721,1.721,0,0,1-.2,1.2,2.591,2.591,0,0,1-1,1.1,12.086,12.086,0,0,1-4,1.7A16.04,16.04,0,0,1,241.1,52.2Z" fill="#061a0f"/>
    </g>
    <path id="Path_76" data-name="Path 76" d="M28.9,9.3c-15.2,3.3-17.3,51.1,0,56.3,9.8,2.9,27.6-7.1,32.4-19.3C69.3,26.5,40.1,6.9,28.9,9.3Z" fill="none" stroke="#ffb000" stroke-miterlimit="10" stroke-width="8"/>
  </g>
</svg>
